# xmcd CD database file
#
# Track frame offsets:
#	150
#	12056
#	36452
#	51815
#	62007
#	80305
#	97036
#	114811
#	128877
#
# Disc length: 2158 seconds
#
# Revision: 0
# Processed by: cddbd v1.5.2PL0 Copyright (c) Steve Scherf et al.
# Submitted via: CDex 1.60beta1-cs1
#
DISCID=6b086c09
DTITLE=HIdeo Shiraki - HIdeo Shiraki
DYEAR=1900
DGENRE=Jazz
TTITLE0=I got Rhythm
TTITLE1=Moritat
TTITLE2=The Man I Love
TTITLE3=A Mono-Drummer
TTITLE4=Tuxeed Junction
TTITLE5=Lover, come back to Me
TTITLE6=Around the World
TTITLE7=Drum Boogie
TTITLE8=A night in Tunisia
EXTD=
EXTT0=
EXTT1=
EXTT2=
EXTT3=
EXTT4=
EXTT5=
EXTT6=
EXTT7=
EXTT8=
PLAYORDER=
